<svg width="32" height="32" viewBox="0 0 32 32" fill="none" xmlns="http://www.w3.org/2000/svg">
<path d="M30 16C30 23.732 23.732 30 16 30C8.26801 30 2 23.732 2 16C2 8.26801 8.26801 2 16 2C23.732 2 30 8.26801 30 16Z" fill="#5FC9E3"/>
<path d="M15.8186 8.23276L16 8.22229C16.7978 8.22229 17.4553 8.8228 17.5451 9.59644L17.5556 9.77785L17.5556 14.4444H22.2222C23.02 14.4444 23.6775 15.045 23.7673 15.8186L23.7778 16C23.7778 16.7977 23.1773 17.4552 22.4036 17.5451L22.2222 17.5556H17.5556V22.2223C17.5556 23.02 16.955 23.6775 16.1814 23.7674L16 23.7778C15.2023 23.7778 14.5448 23.1773 14.4549 22.4037L14.4444 22.2223V17.5556H9.77779C8.98004 17.5556 8.32255 16.955 8.2327 16.1814L8.22223 16C8.22223 15.2023 8.82274 14.5448 9.59637 14.4549L9.77779 14.4444H14.4444L14.4445 9.77785C14.4445 8.9801 15.045 8.32261 15.8186 8.23276Z" fill="white"/>
</svg>
