<svg width="24" height="24" viewBox="0 0 24 24" fill="none" xmlns="http://www.w3.org/2000/svg">
<path fill-rule="evenodd" clip-rule="evenodd" d="M20.2402 3H7.29195C7.13368 2.99998 6.97784 3.04058 6.83827 3.11821C6.69871 3.19583 6.57972 3.30808 6.49188 3.445L1.36354 11.445C1.25811 11.6093 1.20184 11.8025 1.20184 12C1.20184 12.1975 1.25811 12.3907 1.36354 12.555L6.49188 20.555C6.57972 20.6919 6.69871 20.8042 6.83827 20.8818C6.97784 20.9594 7.13368 21 7.29195 21H20.2402C20.4953 21 20.7399 20.8946 20.9202 20.7071C21.1005 20.5196 21.2018 20.2652 21.2018 20V4C21.2018 3.73478 21.1005 3.48043 20.9202 3.29289C20.7399 3.10536 20.4953 3 20.2402 3ZM17.0754 7.94965C17.4459 8.32016 17.4456 8.92119 17.0751 9.29169L14.3917 11.9748L17.0754 14.6582C17.4459 15.0287 17.4459 15.6294 17.0754 16C16.7049 16.3705 16.1036 16.3705 15.7331 16L13.0503 13.3162L10.3667 15.9999C9.99622 16.3704 9.39551 16.3704 9.02501 15.9999C8.6545 15.6294 8.65465 15.0281 9.02515 14.6576L11.7089 11.9748L9.02509 9.29148C8.65458 8.92098 8.65458 8.32027 9.02509 7.94977C9.39559 7.57926 9.99699 7.5792 10.3675 7.9497L13.0503 10.6334L15.7337 7.94965C16.1042 7.57915 16.7049 7.57915 17.0754 7.94965Z" fill="black"/>
</svg>
