<svg width="24" height="24" viewBox="0 0 24 24" fill="none" xmlns="http://www.w3.org/2000/svg">
<path d="M7.81072 3H21.0825C21.3258 3 21.5592 3.10536 21.7313 3.29289C21.9033 3.48043 22 3.73478 22 4V20C22 20.2652 21.9033 20.5196 21.7313 20.7071C21.5592 20.8946 21.3258 21 21.0825 21H7.81072C7.65971 21 7.51102 20.9594 7.37786 20.8818C7.24469 20.8042 7.13117 20.6919 7.04735 20.555L2.15428 12.555C2.05368 12.3907 2 12.1975 2 12C2 11.8025 2.05368 11.6093 2.15428 11.445L7.04735 3.445C7.13117 3.30808 7.24469 3.19583 7.37786 3.11821C7.51102 3.04058 7.65971 2.99998 7.81072 3ZM8.30159 5L4.02049 12L8.30159 19H20.165V5H8.30159Z" fill="black"/>
<path d="M17.9996 9.29167C17.9995 9.29178 17.9997 9.29156 17.9996 9.29167C18.3701 8.92117 18.3704 8.32014 17.9999 7.94963C17.6294 7.57913 17.0287 7.57913 16.6582 7.94963C16.6583 7.94952 16.6581 7.94974 16.6582 7.94963L13.9748 10.6334L11.292 7.94968C10.9215 7.57917 10.3201 7.57924 9.94964 7.94975C9.57913 8.32025 9.57913 8.92096 9.94964 9.29146L12.6334 11.9748L9.94971 14.6576C9.94983 14.6575 9.94958 14.6577 9.94971 14.6576C9.5792 15.0281 9.57905 15.6294 9.94956 15.9999C10.3201 16.3704 10.9208 16.3704 11.2913 15.9999C11.2912 16 11.2914 15.9998 11.2913 15.9999L13.9748 13.3162L16.6576 15.9999C17.0281 16.3704 17.6294 16.3704 17.9999 15.9999C18.3704 15.6294 18.3704 15.0287 17.9999 14.6582L15.3162 11.9748L17.9996 9.29167Z" fill="black"/>
</svg>
