<svg width="24" height="24" viewBox="0 0 24 24" fill="none" xmlns="http://www.w3.org/2000/svg">
<path fill-rule="evenodd" clip-rule="evenodd" d="M19.5619 3C19.3513 3 19.1571 3.07195 19.0014 3.1932L17.1798 5.06231C15.7274 4.30091 14.0947 3.92021 12.2818 3.92021C7.65291 3.92021 4.19927 6.39315 1.92093 11.339C1.82936 11.5379 1.78186 11.7552 1.78186 11.9752C1.78186 12.1951 1.82936 12.4124 1.92093 12.6113C2.83131 14.5783 3.92753 16.1549 5.2096 17.341L3.13925 19.4639C3.01678 19.6252 2.94382 19.828 2.94382 20.0483C2.94382 20.5739 3.35922 21 3.87164 21C4.08022 21 4.27272 20.9294 4.42768 20.8102L20.296 4.53389C20.4174 4.37296 20.4897 4.17101 20.4897 3.95173C20.4897 3.4261 20.0743 3 19.5619 3ZM8.49697 9.83118C8.13624 10.4847 7.94667 11.2229 7.94673 11.9739C7.94571 12.6882 8.11715 13.3917 8.44575 14.0215L9.61671 12.8203C9.4655 12.3359 9.44729 11.8181 9.56408 11.3238C9.68087 10.8295 9.92814 10.3777 10.2788 10.018C10.6294 9.65838 11.0698 9.40474 11.5517 9.28494C12.0336 9.16515 12.5384 9.18383 13.0106 9.33893L14.1816 8.13779C13.5357 7.78414 12.8115 7.60811 12.0796 7.62687C11.3477 7.64563 10.633 7.85853 10.0052 8.24483C9.37732 8.63114 8.85771 9.17767 8.49697 9.83118ZM14.0929 13.9304C13.587 14.4493 12.9009 14.7409 12.1855 14.7409C12.1063 14.7409 12.0282 14.7371 11.9509 14.7302L14.8726 11.7333C14.8793 11.8126 14.8829 11.8929 14.8829 11.9739C14.8829 12.7078 14.5987 13.4115 14.0929 13.9304ZM19.6156 6.85632C20.7859 8.01168 21.795 9.50507 22.6427 11.3365C22.7343 11.5354 22.7818 11.7527 22.7818 11.9727C22.7818 12.1926 22.7343 12.4099 22.6427 12.6088C20.3644 17.5547 16.9108 20.0276 12.2818 20.0276C10.6091 20.0276 9.08973 19.7034 7.72369 19.055L10.6682 16.0346C11.4331 16.3348 12.2664 16.4013 13.0675 16.2262C13.8685 16.051 14.6029 15.6417 15.182 15.0477C15.7611 14.4536 16.1602 13.7002 16.3309 12.8786C16.5016 12.0569 16.4368 11.2022 16.1442 10.4175L19.6156 6.85632Z" fill="#212121"/>
</svg>
