<svg width="24" height="24" viewBox="0 0 24 24" fill="none" xmlns="http://www.w3.org/2000/svg">
<path fill-rule="evenodd" clip-rule="evenodd" d="M20.5841 4.5819L20.5913 4.58915L4.60358 20.7171L4.60272 20.7162C4.43515 20.8912 4.2001 21.0001 3.93983 21.0001C3.43094 21.0001 3.01841 20.5839 3.01841 20.0705C3.01841 19.8481 3.09589 19.6438 3.22511 19.4838L5.20839 17.4836C3.92697 16.3172 2.83115 14.7671 1.92093 12.8331C1.82936 12.6375 1.78186 12.4238 1.78186 12.2075C1.78186 11.9911 1.82936 11.7775 1.92093 11.5818C4.19928 6.71775 7.65291 4.2857 12.2818 4.2857C14.0939 4.2857 15.7261 4.65987 17.1784 5.40819L19.2912 3.27766L19.2945 3.28098C19.4604 3.10774 19.693 3 19.9506 3C20.4543 3 20.8626 3.41191 20.8626 3.92003C20.8626 4.17989 20.7558 4.41459 20.5841 4.5819ZM19.6202 7.17695C20.7886 8.31255 21.7961 9.78004 22.6428 11.5794C22.7344 11.775 22.7819 11.9887 22.7819 12.205C22.7819 12.4214 22.7344 12.635 22.6428 12.8307C20.3644 17.6948 16.9108 20.1268 12.2818 20.1268C10.612 20.1268 9.09474 19.8089 7.72998 19.1732L9.05773 17.8337C10.0404 18.1962 11.1151 18.3775 12.2818 18.3775C16.169 18.3775 19.0133 16.3901 21.0171 12.2063C20.2645 10.6367 19.3941 9.37648 18.3948 8.41314L19.6202 7.17695ZM12.2818 6.03503C8.39711 6.03503 5.55279 8.02245 3.5466 12.2063C4.36545 13.9138 5.32399 15.2552 6.43595 16.2452L8.44503 14.2185C8.01721 13.4096 7.85844 12.4834 7.99213 11.5765C8.12581 10.6696 8.54489 9.83015 9.18752 9.18185C9.83016 8.53355 10.6623 8.11078 11.5613 7.97592C12.4602 7.84105 13.3783 8.00123 14.1801 8.43282L15.8732 6.7248C14.7897 6.26244 13.5954 6.03503 12.2818 6.03503ZM9.78172 10.9737C9.58912 11.3555 9.48853 11.7778 9.48811 12.2063C9.4878 12.4882 9.53095 12.7686 9.61599 13.0372L13.0092 9.6141C12.6046 9.48382 12.1753 9.45166 11.7561 9.52022C11.3369 9.58878 10.9396 9.75614 10.5965 10.0087C10.2535 10.2612 9.97431 10.5919 9.78172 10.9737ZM11.9386 15.0351C12.02 15.0426 12.1022 15.0465 12.1855 15.0465C12.5398 15.0467 12.8906 14.9764 13.218 14.8398C13.5453 14.7031 13.8428 14.5026 14.0933 14.2499C14.3438 13.9972 14.5425 13.6971 14.678 13.3669C14.8134 13.0367 14.8831 12.6827 14.8829 12.3253C14.8829 12.2413 14.879 12.1584 14.8716 12.0763L16.1437 10.793C16.4367 11.5648 16.5018 12.4058 16.3312 13.2142C16.1605 14.0226 15.7614 14.7638 15.182 15.3483C14.6027 15.9327 13.868 16.3354 13.0666 16.5075C12.2653 16.6797 11.4316 16.614 10.6665 16.3184L11.9386 15.0351Z" fill="black"/>
</svg>
