<svg width="32" height="32" viewBox="0 0 32 32" fill="none" xmlns="http://www.w3.org/2000/svg">
<path d="M10.1054 14.4932H7.72111C6.55739 14.4932 5.44132 14.031 4.61845 13.2081C3.79558 12.3852 3.33331 11.2691 3.33331 10.1054V7.72111C3.33331 6.55739 3.79558 5.44132 4.61845 4.61845C5.44132 3.79558 6.55739 3.33331 7.72111 3.33331H10.1054C11.2691 3.33331 12.3852 3.79558 13.2081 4.61845C14.031 5.44132 14.4932 6.55739 14.4932 7.72111V10.1054C14.4954 10.6823 14.3834 11.2538 14.1637 11.7872C13.9439 12.3205 13.6208 12.8051 13.2129 13.2129C12.8051 13.6208 12.3205 13.9439 11.7872 14.1637C11.2538 14.3834 10.6823 14.4954 10.1054 14.4932ZM7.72111 5.4858C7.12961 5.49014 6.56359 5.72706 6.14532 6.14532C5.72706 6.56359 5.49014 7.12961 5.4858 7.72111V10.1054C5.4858 10.399 5.54365 10.6897 5.65599 10.9609C5.76832 11.2321 5.93296 11.4785 6.14052 11.686C6.34809 11.8936 6.59448 12.0582 6.86568 12.1706C7.13688 12.2829 7.42757 12.3407 7.72111 12.3407H10.1054C10.3996 12.3429 10.6912 12.2866 10.9634 12.1751C11.2356 12.0635 11.4829 11.8989 11.6909 11.6909C11.8989 11.4829 12.0635 11.2356 12.1751 10.9634C12.2866 10.6912 12.3429 10.3996 12.3407 10.1054V7.72111C12.3407 7.12827 12.1052 6.55972 11.686 6.14052C11.2668 5.72132 10.6983 5.4858 10.1054 5.4858H7.72111Z" fill="#C4C4C4"/>
<path d="M24.2789 14.4932H21.8945C21.3177 14.4954 20.7461 14.3834 20.2128 14.1637C19.6794 13.9439 19.1949 13.6208 18.787 13.2129C18.3791 12.8051 18.056 12.3205 17.8363 11.7872C17.6166 11.2538 17.5045 10.6823 17.5067 10.1054V7.72111C17.5067 6.55739 17.969 5.44132 18.7919 4.61845C19.6147 3.79558 20.7308 3.33331 21.8945 3.33331H24.2789C25.4426 3.33331 26.5586 3.79558 27.3815 4.61845C28.2044 5.44132 28.6666 6.55739 28.6666 7.72111V10.1054C28.6666 11.2691 28.2044 12.3852 27.3815 13.2081C26.5586 14.031 25.4426 14.4932 24.2789 14.4932ZM21.8945 5.4858C21.3017 5.4858 20.7331 5.72132 20.3139 6.14052C19.8947 6.55972 19.6592 7.12827 19.6592 7.72111V10.1054C19.657 10.3996 19.7134 10.6912 19.8249 10.9634C19.9365 11.2356 20.101 11.4829 20.309 11.6909C20.517 11.8989 20.7643 12.0635 21.0365 12.1751C21.3087 12.2866 21.6004 12.3429 21.8945 12.3407H24.2789C24.5724 12.3407 24.8631 12.2829 25.1343 12.1706C25.4055 12.0582 25.6519 11.8936 25.8594 11.686C26.067 11.4785 26.2316 11.2321 26.344 10.9609C26.4563 10.6897 26.5142 10.399 26.5142 10.1054V7.72111C26.5098 7.12961 26.2729 6.56359 25.8546 6.14532C25.4364 5.72706 24.8703 5.49014 24.2789 5.4858H21.8945Z" fill="#C4C4C4"/>
<path d="M24.2789 28.6666H21.8945C20.7308 28.6666 19.6147 28.2044 18.7919 27.3815C17.969 26.5586 17.5067 25.4426 17.5067 24.2789V21.8945C17.5045 21.3177 17.6166 20.7461 17.8363 20.2128C18.056 19.6794 18.3791 19.1949 18.787 18.787C19.1949 18.3791 19.6794 18.056 20.2128 17.8363C20.7461 17.6166 21.3177 17.5045 21.8945 17.5067H24.2789C25.4426 17.5067 26.5586 17.969 27.3815 18.7919C28.2044 19.6147 28.6666 20.7308 28.6666 21.8945V24.2789C28.6666 25.4426 28.2044 26.5586 27.3815 27.3815C26.5586 28.2044 25.4426 28.6666 24.2789 28.6666ZM21.8945 19.6592C21.6004 19.657 21.3087 19.7134 21.0365 19.8249C20.7643 19.9365 20.517 20.101 20.309 20.309C20.101 20.517 19.9365 20.7643 19.8249 21.0365C19.7134 21.3087 19.657 21.6004 19.6592 21.8945V24.2789C19.6592 24.8717 19.8947 25.4402 20.3139 25.8594C20.7331 26.2786 21.3017 26.5142 21.8945 26.5142H24.2789C24.8703 26.5098 25.4364 26.2729 25.8546 25.8546C26.2729 25.4364 26.5098 24.8703 26.5142 24.2789V21.8945C26.5142 21.601 26.4563 21.3103 26.344 21.0391C26.2316 20.7679 26.067 20.5215 25.8594 20.3139C25.6519 20.1064 25.4055 19.9417 25.1343 19.8294C24.8631 19.7171 24.5724 19.6592 24.2789 19.6592H21.8945Z" fill="#C4C4C4"/>
<path d="M10.1054 28.6666H7.72111C6.55739 28.6666 5.44132 28.2044 4.61845 27.3815C3.79558 26.5586 3.33331 25.4426 3.33331 24.2789V21.8945C3.33331 20.7308 3.79558 19.6147 4.61845 18.7919C5.44132 17.969 6.55739 17.5067 7.72111 17.5067H10.1054C10.6823 17.5045 11.2538 17.6166 11.7872 17.8363C12.3205 18.056 12.8051 18.3791 13.2129 18.787C13.6208 19.1949 13.9439 19.6794 14.1637 20.2128C14.3834 20.7461 14.4954 21.3177 14.4932 21.8945V24.2789C14.4932 25.4426 14.031 26.5586 13.2081 27.3815C12.3852 28.2044 11.2691 28.6666 10.1054 28.6666ZM7.72111 19.6592C7.42757 19.6592 7.13688 19.7171 6.86568 19.8294C6.59448 19.9417 6.34809 20.1064 6.14052 20.3139C5.93296 20.5215 5.76832 20.7679 5.65599 21.0391C5.54365 21.3103 5.4858 21.601 5.4858 21.8945V24.2789C5.49014 24.8703 5.72706 25.4364 6.14532 25.8546C6.56359 26.2729 7.12961 26.5098 7.72111 26.5142H10.1054C10.6983 26.5142 11.2668 26.2786 11.686 25.8594C12.1052 25.4402 12.3407 24.8717 12.3407 24.2789V21.8945C12.3429 21.6004 12.2866 21.3087 12.1751 21.0365C12.0635 20.7643 11.8989 20.517 11.6909 20.309C11.4829 20.101 11.2356 19.9365 10.9634 19.8249C10.6912 19.7134 10.3996 19.657 10.1054 19.6592H7.72111Z" fill="#C4C4C4"/>
</svg>
