<svg width="26" height="26" viewBox="0 0 26 26" fill="none" xmlns="http://www.w3.org/2000/svg">
<path d="M7.10543 11.4932H4.72111C3.55739 11.4932 2.44132 11.031 1.61845 10.2081C0.795576 9.38522 0.333313 8.26915 0.333313 7.10543V4.72111C0.333313 3.55739 0.795576 2.44132 1.61845 1.61845C2.44132 0.795576 3.55739 0.333313 4.72111 0.333313H7.10543C8.26915 0.333313 9.38522 0.795576 10.2081 1.61845C11.031 2.44132 11.4932 3.55739 11.4932 4.72111V7.10543C11.4954 7.68226 11.3834 8.25384 11.1637 8.78718C10.9439 9.32052 10.6208 9.80506 10.2129 10.2129C9.80506 10.6208 9.32052 10.9439 8.78718 11.1637C8.25384 11.3834 7.68226 11.4954 7.10543 11.4932Z" fill="#5FC9E3"/>
<path d="M21.2789 11.4932H18.8945C18.3177 11.4954 17.7461 11.3834 17.2128 11.1637C16.6794 10.9439 16.1949 10.6208 15.787 10.2129C15.3791 9.80506 15.056 9.32052 14.8363 8.78718C14.6166 8.25384 14.5045 7.68226 14.5067 7.10543V4.72111C14.5067 3.55739 14.969 2.44132 15.7919 1.61845C16.6147 0.795576 17.7308 0.333313 18.8945 0.333313H21.2789C22.4426 0.333313 23.5586 0.795576 24.3815 1.61845C25.2044 2.44132 25.6666 3.55739 25.6666 4.72111V7.10543C25.6666 8.26915 25.2044 9.38522 24.3815 10.2081C23.5586 11.031 22.4426 11.4932 21.2789 11.4932Z" fill="#5FC9E3"/>
<path d="M21.2789 25.6666H18.8945C17.7308 25.6666 16.6147 25.2044 15.7919 24.3815C14.969 23.5586 14.5067 22.4426 14.5067 21.2789V18.8945C14.5045 18.3177 14.6166 17.7461 14.8363 17.2128C15.056 16.6794 15.3791 16.1949 15.787 15.787C16.1949 15.3791 16.6794 15.056 17.2128 14.8363C17.7461 14.6166 18.3177 14.5045 18.8945 14.5067H21.2789C22.4426 14.5067 23.5586 14.969 24.3815 15.7919C25.2044 16.6147 25.6666 17.7308 25.6666 18.8945V21.2789C25.6666 22.4426 25.2044 23.5586 24.3815 24.3815C23.5586 25.2044 22.4426 25.6666 21.2789 25.6666Z" fill="#5FC9E3"/>
<path d="M7.10543 25.6666H4.72111C3.55739 25.6666 2.44132 25.2044 1.61845 24.3815C0.795576 23.5586 0.333313 22.4426 0.333313 21.2789V18.8945C0.333313 17.7308 0.795576 16.6147 1.61845 15.7919C2.44132 14.969 3.55739 14.5067 4.72111 14.5067H7.10543C7.68226 14.5045 8.25384 14.6166 8.78718 14.8363C9.32052 15.056 9.80506 15.3791 10.2129 15.787C10.6208 16.1949 10.9439 16.6794 11.1637 17.2128C11.3834 17.7461 11.4954 18.3177 11.4932 18.8945V21.2789C11.4932 22.4426 11.031 23.5586 10.2081 24.3815C9.38522 25.2044 8.26915 25.6666 7.10543 25.6666Z" fill="#5FC9E3"/>
</svg>
