<svg width="24" height="24" viewBox="0 0 24 24" fill="none" xmlns="http://www.w3.org/2000/svg">
<mask id="path-1-inside-1_770_177" fill="white">
<path fill-rule="evenodd" clip-rule="evenodd" d="M19.5619 3C19.3513 3 19.1571 3.07195 19.0014 3.1932L17.1798 5.06231C15.7274 4.30091 14.0947 3.92021 12.2818 3.92021C7.65291 3.92021 4.19927 6.39315 1.92093 11.339C1.82936 11.5379 1.78186 11.7552 1.78186 11.9752C1.78186 12.1951 1.82936 12.4124 1.92093 12.6113C2.83131 14.5783 3.92753 16.1549 5.2096 17.341L3.13925 19.4639C3.01678 19.6252 2.94382 19.828 2.94382 20.0483C2.94382 20.5739 3.35922 21 3.87164 21C4.08022 21 4.27272 20.9294 4.42768 20.8102L20.296 4.53389C20.4174 4.37296 20.4897 4.17101 20.4897 3.95173C20.4897 3.4261 20.0743 3 19.5619 3ZM8.49697 9.83118C8.13624 10.4847 7.94667 11.2229 7.94673 11.9739C7.94571 12.6882 8.11715 13.3917 8.44575 14.0215L9.61671 12.8203C9.4655 12.3359 9.44729 11.8181 9.56408 11.3238C9.68087 10.8295 9.92814 10.3777 10.2788 10.018C10.6294 9.65838 11.0698 9.40474 11.5517 9.28494C12.0336 9.16515 12.5384 9.18383 13.0106 9.33893L14.1816 8.13779C13.5357 7.78414 12.8115 7.60811 12.0796 7.62687C11.3477 7.64563 10.633 7.85853 10.0052 8.24483C9.37732 8.63114 8.85771 9.17767 8.49697 9.83118ZM14.0929 13.9304C13.587 14.4493 12.9009 14.7409 12.1855 14.7409C12.1063 14.7409 12.0282 14.7371 11.9509 14.7302L14.8726 11.7333C14.8793 11.8126 14.8829 11.8929 14.8829 11.9739C14.8829 12.7078 14.5987 13.4115 14.0929 13.9304ZM19.6156 6.85632C20.7859 8.01168 21.795 9.50507 22.6427 11.3365C22.7343 11.5354 22.7818 11.7527 22.7818 11.9727C22.7818 12.1926 22.7343 12.4099 22.6427 12.6088C20.3644 17.5547 16.9108 20.0276 12.2818 20.0276C10.6091 20.0276 9.08973 19.7034 7.72369 19.055L10.6682 16.0346C11.4331 16.3348 12.2664 16.4013 13.0675 16.2262C13.8685 16.051 14.6029 15.6417 15.182 15.0477C15.7611 14.4536 16.1602 13.7002 16.3309 12.8786C16.5016 12.0569 16.4368 11.2022 16.1442 10.4175L19.6156 6.85632Z"/>
</mask>
<path fill-rule="evenodd" clip-rule="evenodd" d="M19.5619 3C19.3513 3 19.1571 3.07195 19.0014 3.1932L17.1798 5.06231C15.7274 4.30091 14.0947 3.92021 12.2818 3.92021C7.65291 3.92021 4.19927 6.39315 1.92093 11.339C1.82936 11.5379 1.78186 11.7552 1.78186 11.9752C1.78186 12.1951 1.82936 12.4124 1.92093 12.6113C2.83131 14.5783 3.92753 16.1549 5.2096 17.341L3.13925 19.4639C3.01678 19.6252 2.94382 19.828 2.94382 20.0483C2.94382 20.5739 3.35922 21 3.87164 21C4.08022 21 4.27272 20.9294 4.42768 20.8102L20.296 4.53389C20.4174 4.37296 20.4897 4.17101 20.4897 3.95173C20.4897 3.4261 20.0743 3 19.5619 3ZM8.49697 9.83118C8.13624 10.4847 7.94667 11.2229 7.94673 11.9739C7.94571 12.6882 8.11715 13.3917 8.44575 14.0215L9.61671 12.8203C9.4655 12.3359 9.44729 11.8181 9.56408 11.3238C9.68087 10.8295 9.92814 10.3777 10.2788 10.018C10.6294 9.65838 11.0698 9.40474 11.5517 9.28494C12.0336 9.16515 12.5384 9.18383 13.0106 9.33893L14.1816 8.13779C13.5357 7.78414 12.8115 7.60811 12.0796 7.62687C11.3477 7.64563 10.633 7.85853 10.0052 8.24483C9.37732 8.63114 8.85771 9.17767 8.49697 9.83118ZM14.0929 13.9304C13.587 14.4493 12.9009 14.7409 12.1855 14.7409C12.1063 14.7409 12.0282 14.7371 11.9509 14.7302L14.8726 11.7333C14.8793 11.8126 14.8829 11.8929 14.8829 11.9739C14.8829 12.7078 14.5987 13.4115 14.0929 13.9304ZM19.6156 6.85632C20.7859 8.01168 21.795 9.50507 22.6427 11.3365C22.7343 11.5354 22.7818 11.7527 22.7818 11.9727C22.7818 12.1926 22.7343 12.4099 22.6427 12.6088C20.3644 17.5547 16.9108 20.0276 12.2818 20.0276C10.6091 20.0276 9.08973 19.7034 7.72369 19.055L10.6682 16.0346C11.4331 16.3348 12.2664 16.4013 13.0675 16.2262C13.8685 16.051 14.6029 15.6417 15.182 15.0477C15.7611 14.4536 16.1602 13.7002 16.3309 12.8786C16.5016 12.0569 16.4368 11.2022 16.1442 10.4175L19.6156 6.85632Z" fill="#212121"/>
<path d="M19.0014 3.1932L18.3871 2.40419L18.3331 2.44624L18.2853 2.49525L19.0014 3.1932ZM17.1798 5.06231L16.7155 5.94799L17.3757 6.29407L17.8959 5.76027L17.1798 5.06231ZM1.92093 11.339L1.01267 10.9206L1.01258 10.9208L1.92093 11.339ZM1.92093 12.6113L1.01258 13.0295L1.01342 13.0313L1.92093 12.6113ZM5.2096 17.341L5.92551 18.0392L6.64231 17.3042L5.88871 16.607L5.2096 17.341ZM3.13925 19.4639L2.42334 18.7657L2.38021 18.8099L2.34285 18.8591L3.13925 19.4639ZM4.42768 20.8102L5.03732 21.6029L5.09389 21.5594L5.14371 21.5083L4.42768 20.8102ZM20.296 4.53389L21.012 5.23196L21.0561 5.18675L21.0941 5.13635L20.296 4.53389ZM7.94673 11.9739L8.94673 11.9754L8.94673 11.9738L7.94673 11.9739ZM8.49697 9.83118L9.37245 10.3144L9.37245 10.3144L8.49697 9.83118ZM8.44575 14.0215L7.55918 14.484L8.19793 15.7082L9.1618 14.7195L8.44575 14.0215ZM9.61671 12.8203L10.3328 13.5184L10.7489 13.0915L10.5713 12.5223L9.61671 12.8203ZM9.56408 11.3238L10.5373 11.5537L10.5373 11.5537L9.56408 11.3238ZM10.2788 10.018L10.9948 10.7161L10.9948 10.7161L10.2788 10.018ZM11.5517 9.28494L11.3105 8.31448L11.3105 8.31448L11.5517 9.28494ZM13.0106 9.33893L12.6986 10.289L13.2912 10.4837L13.7267 10.037L13.0106 9.33893ZM14.1816 8.13779L14.8976 8.83585L15.8167 7.89304L14.6619 7.26067L14.1816 8.13779ZM12.0796 7.62687L12.1053 8.62654L12.1053 8.62654L12.0796 7.62687ZM10.0052 8.24483L10.5292 9.09654L10.5292 9.09654L10.0052 8.24483ZM14.0929 13.9304L14.8089 14.6285L14.8089 14.6285L14.0929 13.9304ZM11.9509 14.7302L11.2349 14.0322L9.76619 15.5387L11.8618 15.7262L11.9509 14.7302ZM14.8726 11.7333L15.869 11.6486L15.6836 9.46881L14.1565 11.0353L14.8726 11.7333ZM22.6427 11.3365L23.5511 10.9182L23.5502 10.9164L22.6427 11.3365ZM19.6156 6.85632L20.3182 6.14468L19.602 5.43768L18.8996 6.15829L19.6156 6.85632ZM22.6427 12.6088L23.551 13.0272L23.5511 13.0271L22.6427 12.6088ZM7.72369 19.055L7.00765 18.3569L6.0312 19.3586L7.29488 19.9584L7.72369 19.055ZM10.6682 16.0346L11.0335 15.1037L10.4155 14.8612L9.95215 15.3365L10.6682 16.0346ZM13.0675 16.2262L12.8539 15.2492L12.8539 15.2492L13.0675 16.2262ZM16.3309 12.8786L15.3518 12.6751L15.3518 12.6751L16.3309 12.8786ZM16.1442 10.4175L15.4281 9.71947L14.9858 10.1732L15.2072 10.7669L16.1442 10.4175ZM19.6158 3.98221C19.6104 3.98647 19.6027 3.99105 19.5926 3.99459C19.5821 3.99827 19.5713 4 19.5619 4V2C19.1189 2 18.7104 2.15241 18.3871 2.40419L19.6158 3.98221ZM17.8959 5.76027L19.7176 3.89116L18.2853 2.49525L16.4637 4.36435L17.8959 5.76027ZM12.2818 4.92021C13.9503 4.92021 15.4209 5.26935 16.7155 5.94799L17.6441 4.17663C16.0338 3.33247 14.2391 2.92021 12.2818 2.92021V4.92021ZM2.8292 11.7574C3.9158 9.3986 5.25078 7.69877 6.8021 6.58797C8.34377 5.48408 10.1565 4.92021 12.2818 4.92021V2.92021C9.77828 2.92021 7.5497 3.59282 5.63773 4.96186C3.73541 6.32399 2.20441 8.33357 1.01267 10.9206L2.8292 11.7574ZM2.78186 11.9752C2.78186 11.8989 2.79838 11.8244 2.82929 11.7572L1.01258 10.9208C0.860336 11.2515 0.78186 11.6115 0.78186 11.9752H2.78186ZM2.82929 12.1931C2.79837 12.126 2.78186 12.0514 2.78186 11.9752H0.78186C0.78186 12.3388 0.860336 12.6988 1.01258 13.0295L2.82929 12.1931ZM5.88871 16.607C4.72264 15.5282 3.69673 14.0673 2.82845 12.1913L1.01342 13.0313C1.96588 15.0893 3.13241 16.7816 4.53048 18.075L5.88871 16.607ZM3.85516 20.1621L5.92551 18.0392L4.49368 16.6428L2.42334 18.7657L3.85516 20.1621ZM3.94382 20.0483C3.94382 20.0491 3.9436 20.0523 3.94211 20.0567C3.94073 20.0607 3.93862 20.0648 3.93565 20.0687L2.34285 18.8591C2.09158 19.19 1.94382 19.6042 1.94382 20.0483H3.94382ZM3.87164 20C3.88347 20 3.89669 20.0027 3.90851 20.0078C3.91958 20.0126 3.92699 20.0184 3.93162 20.0232C3.94097 20.0328 3.94382 20.0435 3.94382 20.0483H1.94382C1.94382 21.102 2.7831 22 3.87164 22V20ZM3.81804 20.0175C3.82354 20.0133 3.83123 20.0088 3.84123 20.0053C3.85163 20.0017 3.86233 20 3.87164 20V22C4.31042 22 4.7154 21.8505 5.03732 21.6029L3.81804 20.0175ZM19.5799 3.83582L3.71165 20.1122L5.14371 21.5083L21.012 5.23196L19.5799 3.83582ZM19.4897 3.95173C19.4897 3.9509 19.4899 3.94772 19.4914 3.94337C19.4928 3.93935 19.4949 3.93531 19.4978 3.93143L21.0941 5.13635C21.3433 4.80622 21.4897 4.39379 21.4897 3.95173H19.4897ZM19.5619 4C19.5501 4 19.5369 3.9973 19.525 3.99217C19.514 3.98736 19.5066 3.98155 19.5019 3.97681C19.4926 3.96722 19.4897 3.95654 19.4897 3.95173H21.4897C21.4897 2.89796 20.6504 2 19.5619 2V4ZM8.94673 11.9738C8.94668 11.3908 9.09393 10.819 9.37245 10.3144L7.6215 9.34793C7.17854 10.1504 6.94665 11.055 6.94673 11.974L8.94673 11.9738ZM9.33232 13.5589C9.0789 13.0732 8.94594 12.529 8.94673 11.9754L6.94674 11.9725C6.94548 12.8474 7.15541 13.7102 7.55918 14.484L9.33232 13.5589ZM8.90067 12.1223L7.72971 13.3234L9.1618 14.7195L10.3328 13.5184L8.90067 12.1223ZM8.59087 11.0939C8.43291 11.7625 8.45746 12.4626 8.66214 13.1183L10.5713 12.5223C10.4735 12.2092 10.4617 11.8738 10.5373 11.5537L8.59087 11.0939ZM9.56271 9.31998C9.08402 9.81102 8.74886 10.4252 8.59087 11.0939L10.5373 11.5537C10.6129 11.2338 10.7723 10.9444 10.9948 10.7161L9.56271 9.31998ZM11.3105 8.31448C10.6459 8.47969 10.0416 8.82875 9.56271 9.31999L10.9948 10.7161C11.2172 10.488 11.4938 10.3298 11.793 10.2554L11.3105 8.31448ZM13.3227 8.38887C12.6718 8.17508 11.9752 8.14922 11.3105 8.31448L11.793 10.2554C12.092 10.1811 12.405 10.1926 12.6986 10.289L13.3227 8.38887ZM13.4655 7.43974L12.2946 8.64088L13.7267 10.037L14.8976 8.83585L13.4655 7.43974ZM12.1053 8.62654C12.6596 8.61234 13.2094 8.74553 13.7013 9.01491L14.6619 7.26067C13.8621 6.82274 12.9635 6.60389 12.054 6.6272L12.1053 8.62654ZM10.5292 9.09654C11.008 8.80197 11.5509 8.64075 12.1053 8.62654L12.054 6.6272C11.1446 6.65051 10.2581 6.9151 9.48114 7.39313L10.5292 9.09654ZM9.37245 10.3144C9.6509 9.81001 10.0503 9.39122 10.5292 9.09654L9.48114 7.39313C8.70438 7.87106 8.06453 8.54532 7.6215 9.34793L9.37245 10.3144ZM12.1855 15.7409C13.1744 15.7409 14.1176 15.3376 14.8089 14.6285L13.3768 13.2324C13.0564 13.561 12.6274 13.7409 12.1855 13.7409V15.7409ZM11.8618 15.7262C11.9672 15.7357 12.075 15.7409 12.1855 15.7409V13.7409C12.1376 13.7409 12.0893 13.7386 12.0401 13.7342L11.8618 15.7262ZM14.1565 11.0353L11.2349 14.0322L12.667 15.4283L15.5886 12.4314L14.1565 11.0353ZM15.8829 11.9739C15.8829 11.8632 15.878 11.7546 15.869 11.6486L13.8761 11.818C13.8806 11.8706 13.8829 11.9226 13.8829 11.9739H15.8829ZM14.8089 14.6285C15.4994 13.9202 15.8829 12.9649 15.8829 11.9739H13.8829C13.8829 12.4506 13.6981 12.9029 13.3768 13.2324L14.8089 14.6285ZM23.5502 10.9164C22.6632 9.0002 21.5906 7.40086 20.3182 6.14468L18.9131 7.56797C19.9813 8.6225 20.9267 10.01 21.7352 11.7566L23.5502 10.9164ZM23.7818 11.9727C23.7818 11.6089 23.7033 11.2489 23.5511 10.9182L21.7344 11.7548C21.7653 11.8219 21.7818 11.8964 21.7818 11.9727H23.7818ZM23.5511 13.0271C23.7033 12.6964 23.7818 12.3364 23.7818 11.9727H21.7818C21.7818 12.0489 21.7653 12.1234 21.7344 12.1905L23.5511 13.0271ZM12.2818 21.0276C14.7854 21.0276 17.014 20.355 18.9259 18.986C20.8283 17.6238 22.3593 15.6143 23.551 13.0272L21.7345 12.1904C20.6479 14.5492 19.3129 16.249 17.7616 17.3598C16.2199 18.4637 14.4072 19.0276 12.2818 19.0276V21.0276ZM7.29488 19.9584C8.8086 20.6769 10.4767 21.0276 12.2818 21.0276V19.0276C10.7415 19.0276 9.37087 18.7299 8.1525 18.1516L7.29488 19.9584ZM9.95215 15.3365L7.00765 18.3569L8.43974 19.753L11.3842 16.7326L9.95215 15.3365ZM12.8539 15.2492C12.2466 15.382 11.6147 15.3318 11.0335 15.1037L10.3029 16.9655C11.2516 17.3378 12.2863 17.4206 13.2811 17.2031L12.8539 15.2492ZM14.466 14.3496C14.0217 14.8053 13.4613 15.1164 12.8539 15.2492L13.2811 17.2031C14.2756 16.9856 15.1841 16.4781 15.8981 15.7457L14.466 14.3496ZM15.3518 12.6751C15.2194 13.3125 14.9105 13.8937 14.466 14.3496L15.8981 15.7457C16.6118 15.0136 17.101 14.088 17.31 13.082L15.3518 12.6751ZM15.2072 10.7669C15.4338 11.3746 15.4843 12.0377 15.3518 12.6751L17.31 13.082C17.519 12.0762 17.4398 11.0298 17.0811 10.0681L15.2072 10.7669ZM18.8996 6.15829L15.4281 9.71947L16.8602 11.1155L20.3317 7.55435L18.8996 6.15829Z" fill="black" mask="url(#path-1-inside-1_770_177)"/>
</svg>
