<svg width="24" height="24" viewBox="0 0 24 24" fill="none" xmlns="http://www.w3.org/2000/svg">
<path d="M7.07909 11.3699H5.29085C4.41806 11.3699 3.58101 11.0232 2.96385 10.4061C2.3467 9.78893 2 8.95188 2 8.07909V6.29085C2 5.41806 2.3467 4.58101 2.96385 3.96385C3.58101 3.3467 4.41806 3 5.29085 3H7.07909C7.95188 3 8.78893 3.3467 9.40608 3.96385C10.0232 4.58101 10.3699 5.41806 10.3699 6.29085V8.07909C10.3716 8.51171 10.2876 8.94039 10.1228 9.3404C9.95797 9.74041 9.71563 10.1038 9.40972 10.4097C9.10381 10.7156 8.74041 10.958 8.3404 11.1228C7.94039 11.2876 7.51171 11.3716 7.07909 11.3699ZM5.29085 4.61437C4.84722 4.61762 4.42271 4.79531 4.10901 5.10901C3.79531 5.42271 3.61762 5.84722 3.61437 6.29085V8.07909C3.61437 8.29925 3.65776 8.51726 3.74201 8.72066C3.82626 8.92406 3.94973 9.10885 4.10541 9.26453C4.26108 9.4202 4.44588 9.54368 4.64928 9.62793C4.85268 9.71218 5.07069 9.75557 5.29085 9.75557H7.07909C7.29971 9.75722 7.51845 9.71497 7.72259 9.6313C7.92674 9.54764 8.1122 9.42421 8.2682 9.2682C8.42421 9.1122 8.54764 8.92674 8.6313 8.72259C8.71497 8.51845 8.75722 8.29971 8.75557 8.07909V6.29085C8.75557 5.84622 8.57893 5.41981 8.26453 5.10541C7.95013 4.79101 7.52372 4.61437 7.07909 4.61437H5.29085Z" fill="#111826"/>
<path d="M17.7092 11.3699H15.9209C15.4883 11.3716 15.0596 11.2876 14.6596 11.1228C14.2596 10.958 13.8962 10.7156 13.5903 10.4097C13.2844 10.1038 13.042 9.74041 12.8772 9.3404C12.7124 8.94039 12.6284 8.51171 12.6301 8.07909V6.29085C12.6301 5.41806 12.9768 4.58101 13.5939 3.96385C14.2111 3.3467 15.0481 3 15.9209 3H17.7092C18.5819 3 19.419 3.3467 20.0361 3.96385C20.6533 4.58101 21 5.41806 21 6.29085V8.07909C21 8.95188 20.6533 9.78893 20.0361 10.4061C19.419 11.0232 18.5819 11.3699 17.7092 11.3699ZM15.9209 4.61437C15.4763 4.61437 15.0499 4.79101 14.7355 5.10541C14.4211 5.41981 14.2444 5.84622 14.2444 6.29085V8.07909C14.2428 8.29971 14.285 8.51845 14.3687 8.72259C14.4524 8.92674 14.5758 9.1122 14.7318 9.2682C14.8878 9.42421 15.0733 9.54764 15.2774 9.6313C15.4816 9.71497 15.7003 9.75722 15.9209 9.75557H17.7092C17.9293 9.75557 18.1473 9.71218 18.3507 9.62793C18.5541 9.54368 18.7389 9.4202 18.8946 9.26453C19.0503 9.10885 19.1737 8.92406 19.258 8.72066C19.3422 8.51726 19.3856 8.29925 19.3856 8.07909V6.29085C19.3824 5.84722 19.2047 5.42271 18.891 5.10901C18.5773 4.79531 18.1528 4.61762 17.7092 4.61437H15.9209Z" fill="#111826"/>
<path d="M17.7092 22H15.9209C15.0481 22 14.2111 21.6533 13.5939 21.0361C12.9768 20.419 12.6301 19.5819 12.6301 18.7092V16.9209C12.6284 16.4883 12.7124 16.0596 12.8772 15.6596C13.042 15.2596 13.2844 14.8962 13.5903 14.5903C13.8962 14.2844 14.2596 14.042 14.6596 13.8772C15.0596 13.7124 15.4883 13.6284 15.9209 13.6301H17.7092C18.5819 13.6301 19.419 13.9768 20.0361 14.5939C20.6533 15.2111 21 16.0481 21 16.9209V18.7092C21 19.5819 20.6533 20.419 20.0361 21.0361C19.419 21.6533 18.5819 22 17.7092 22ZM15.9209 15.2444C15.7003 15.2428 15.4816 15.285 15.2774 15.3687C15.0733 15.4524 14.8878 15.5758 14.7318 15.7318C14.5758 15.8878 14.4524 16.0733 14.3687 16.2774C14.285 16.4816 14.2428 16.7003 14.2444 16.9209V18.7092C14.2444 19.1538 14.4211 19.5802 14.7355 19.8946C15.0499 20.209 15.4763 20.3856 15.9209 20.3856H17.7092C18.1528 20.3824 18.5773 20.2047 18.891 19.891C19.2047 19.5773 19.3824 19.1528 19.3856 18.7092V16.9209C19.3856 16.7008 19.3422 16.4827 19.258 16.2793C19.1737 16.0759 19.0503 15.8911 18.8946 15.7355C18.7389 15.5798 18.5541 15.4563 18.3507 15.3721C18.1473 15.2878 17.9293 15.2444 17.7092 15.2444H15.9209Z" fill="#111826"/>
<path d="M7.07909 22H5.29085C4.41806 22 3.58101 21.6533 2.96385 21.0361C2.3467 20.419 2 19.5819 2 18.7092V16.9209C2 16.0481 2.3467 15.2111 2.96385 14.5939C3.58101 13.9768 4.41806 13.6301 5.29085 13.6301H7.07909C7.51171 13.6284 7.94039 13.7124 8.3404 13.8772C8.74041 14.042 9.10381 14.2844 9.40972 14.5903C9.71563 14.8962 9.95797 15.2596 10.1228 15.6596C10.2876 16.0596 10.3716 16.4883 10.3699 16.9209V18.7092C10.3699 19.5819 10.0232 20.419 9.40608 21.0361C8.78893 21.6533 7.95188 22 7.07909 22ZM5.29085 15.2444C5.07069 15.2444 4.85268 15.2878 4.64928 15.3721C4.44588 15.4563 4.26108 15.5798 4.10541 15.7355C3.94973 15.8911 3.82626 16.0759 3.74201 16.2793C3.65776 16.4827 3.61437 16.7008 3.61437 16.9209V18.7092C3.61762 19.1528 3.79531 19.5773 4.10901 19.891C4.42271 20.2047 4.84722 20.3824 5.29085 20.3856H7.07909C7.52372 20.3856 7.95013 20.209 8.26453 19.8946C8.57893 19.5802 8.75557 19.1538 8.75557 18.7092V16.9209C8.75722 16.7003 8.71497 16.4816 8.6313 16.2774C8.54764 16.0733 8.42421 15.8878 8.2682 15.7318C8.1122 15.5758 7.92674 15.4524 7.72259 15.3687C7.51845 15.285 7.29971 15.2428 7.07909 15.2444H5.29085Z" fill="#111826"/>
</svg>
