<svg width="24" height="26" viewBox="0 0 24 26" fill="none" xmlns="http://www.w3.org/2000/svg">
<path d="M11.3811 0.547821C11.7441 0.26181 12.2559 0.26181 12.6189 0.547821L22.0944 8.01336C23.2977 8.96144 24 10.4089 24 11.9408V24.3333C24 25.2538 23.2538 26 22.3333 26H15.6667C14.7462 26 14 25.2538 14 24.3333V17.6666C14 17.4825 13.8508 17.3333 13.6667 17.3333H10.3333C10.1492 17.3333 10 17.4825 10 17.6666V24.3333C10 25.2538 9.25381 26 8.33333 26H1.66667C0.746192 26 0 25.2538 0 24.3333V11.9408C0 10.4089 0.702298 8.96144 1.90564 8.01336L11.3811 0.547821Z" fill="#5FC9E3"/>
</svg>
