<svg width="32" height="32" viewBox="0 0 32 32" fill="none" xmlns="http://www.w3.org/2000/svg">
<path d="M15.3811 3.54782C15.7441 3.26181 16.2559 3.26181 16.6189 3.54782L26.0944 11.0134C27.2977 11.9614 28 13.4089 28 14.9408V27.3333C28 28.2538 27.2538 29 26.3333 29H19.6667C18.7462 29 18 28.2538 18 27.3333V20.6666C18 20.4825 17.8508 20.3333 17.6667 20.3333H14.3333C14.1492 20.3333 14 20.4825 14 20.6666V27.3333C14 28.2538 13.2538 29 12.3333 29H5.66667C4.74619 29 4 28.2538 4 27.3333V14.9408C4 13.4089 4.7023 11.9614 5.90564 11.0134L15.3811 3.54782ZM16 5.6064L7.14338 12.5843C6.42138 13.1532 6 14.0216 6 14.9408V27H12V20.6666C12 19.378 13.0447 18.3333 14.3333 18.3333H17.6667C18.9553 18.3333 20 19.378 20 20.6666V27H26V14.9408C26 14.0216 25.5786 13.1532 24.8566 12.5843L16 5.6064Z" fill="#C4C4C4"/>
</svg>
