<svg width="32" height="32" viewBox="0 0 32 32" fill="none" xmlns="http://www.w3.org/2000/svg">
<path d="M3.96005 8.01337C3.57088 8.20983 3.24336 8.50968 3.01339 8.88003C2.78491 9.24824 2.66475 9.67334 2.66671 10.1067V24.4534C2.66888 24.8496 2.7697 25.2391 2.96005 25.5867C3.15905 25.9321 3.43798 26.2247 3.7734 26.44C4.10878 26.6541 4.49569 26.7739 4.8934 26.7867C5.29377 26.8016 5.69179 26.7192 6.05339 26.5467L9.56528 24.7806C10.2406 24.441 10.6667 23.7497 10.6667 22.9938V6.28329C10.6667 5.54025 9.88506 5.05674 9.22021 5.38851L3.96005 8.01337Z" fill="#5FC9E3"/>
<path d="M12.6667 23.004C12.6667 23.7615 13.0947 24.454 13.7723 24.7928L17.2195 26.5164C17.8844 26.8489 18.6667 26.3654 18.6667 25.622V8.90275C18.6667 8.14521 18.2387 7.45268 17.5612 7.1139L14.1139 5.39029C13.449 5.05784 12.6667 5.54134 12.6667 6.28472V23.004Z" fill="#5FC9E3"/>
<path d="M28.3734 6.29335C28.178 5.94886 27.8981 5.65978 27.5601 5.45335C27.2247 5.23922 26.8378 5.11945 26.4401 5.10667C26.044 5.09182 25.6503 5.17425 25.2934 5.3467L21.7702 7.11334C21.0938 7.45253 20.6667 8.14445 20.6667 8.90117V25.6057C20.6667 26.3498 21.4504 26.8333 22.1154 26.4995L27.3334 23.88C27.7281 23.6894 28.062 23.3925 28.2975 23.0228C28.533 22.653 28.6608 22.225 28.6667 21.7867V7.45335C28.6733 7.04754 28.5721 6.64725 28.3734 6.29335Z" fill="#5FC9E3"/>
</svg>
