<svg width="32" height="32" viewBox="0 0 32 32" fill="none" xmlns="http://www.w3.org/2000/svg">
<path d="M19.4401 27.9754L19.2 27.882L11.6667 24.122L6.05339 26.9354C5.69179 27.1079 5.29377 27.1902 4.8934 27.1754C4.49569 27.1626 4.10878 27.0428 3.7734 26.8287C3.43798 26.6133 3.15905 26.3207 2.96005 25.9754C2.7697 25.6278 2.66888 25.2383 2.66671 24.842V10.5087C2.66475 10.0754 2.78491 9.65022 3.01339 9.28201C3.24336 8.91166 3.57088 8.61181 3.96005 8.41535L11.2 4.80203C11.3078 4.74231 11.4251 4.70171 11.5467 4.68203C11.6614 4.66157 11.7787 4.66157 11.8934 4.68203C11.9789 4.69656 12.0605 4.72832 12.1334 4.77537L19.6667 8.53534L25.2934 5.72203C25.6503 5.54958 26.044 5.46719 26.4401 5.48204C26.8378 5.49482 27.2247 5.61455 27.5601 5.82868C27.8981 6.03511 28.1779 6.3242 28.3734 6.66869C28.5698 7.01866 28.6709 7.41407 28.6667 7.81537V22.162C28.6608 22.6003 28.5329 23.0284 28.2974 23.3981C28.0619 23.7679 27.7281 24.0647 27.3334 24.2554L20.1334 27.842C20.0296 27.8974 19.9167 27.9335 19.8001 27.9487H19.6667L19.4401 27.9754ZM26.1867 7.52204L20.6667 10.282V25.3887L26.4801 22.4687C26.5383 22.4474 26.5861 22.4044 26.6134 22.3487C26.6327 22.2925 26.6327 22.2315 26.6134 22.1754V7.84203C26.6269 7.78955 26.6269 7.62561 26.6134 7.57314C26.5875 7.52114 26.5454 7.47901 26.4934 7.45315C26.4421 7.43239 26.3847 7.43239 26.3334 7.45315L26.1867 7.52204ZM12.6667 7.28201V22.3887L18.6667 25.3887V10.282L12.6667 7.28201ZM10.6667 7.28201L4.8534 10.1887C4.79956 10.2226 4.754 10.2682 4.72006 10.322C4.70646 10.379 4.70646 10.4384 4.72006 10.4953V24.842C4.70805 24.8947 4.70805 24.9494 4.72006 25.002C4.7495 25.0513 4.79073 25.0926 4.84005 25.122C4.89198 25.1393 4.94811 25.1393 5.00004 25.122C5.05224 25.1376 5.10784 25.1376 5.16004 25.122L10.6801 22.3753L10.6667 7.28201Z" fill="#C4C4C4"/>
</svg>
