<svg width="32" height="32" viewBox="0 0 32 32" fill="none" xmlns="http://www.w3.org/2000/svg">
<path d="M23.6675 18.6604C25.3235 18.6604 26.666 20.0028 26.666 21.6589V22.4261C26.666 23.6184 26.2399 24.7716 25.4645 25.6774C23.372 28.1221 20.1891 29.3286 15.9953 29.3286C11.8008 29.3286 8.61942 28.1217 6.53102 25.676C5.758 24.7708 5.33331 23.6195 5.33331 22.4291V21.6589C5.33331 20.0028 6.67579 18.6604 8.33182 18.6604H23.6675ZM15.9953 2.66663C19.6772 2.66663 22.6619 5.65139 22.6619 9.33329C22.6619 13.0152 19.6772 16 15.9953 16C12.3134 16 9.32859 13.0152 9.32859 9.33329C9.32859 5.65139 12.3134 2.66663 15.9953 2.66663Z" fill="#5FC9E3"/>
</svg>
