<svg width="32" height="32" viewBox="0 0 32 32" fill="none" xmlns="http://www.w3.org/2000/svg">
<path d="M23.6723 18.6666C25.3283 18.6666 26.6708 20.0091 26.6708 21.6651V22.4323C26.6708 23.6247 26.2446 24.7778 25.4693 25.6836C23.3768 28.1283 20.1939 29.3348 16 29.3348C11.8055 29.3348 8.62418 28.1279 6.53578 25.6822C5.76277 24.777 5.33807 23.6257 5.33807 22.4353V21.6651C5.33807 20.0091 6.68055 18.6666 8.33658 18.6666H23.6723ZM23.6723 20.6666H8.33658C7.78512 20.6666 7.33807 21.1136 7.33807 21.6651V22.4353C7.33807 23.1495 7.59289 23.8403 8.0567 24.3835C9.72778 26.3404 12.3489 27.3348 16 27.3348C19.6511 27.3348 22.2745 26.3403 23.9499 24.3831C24.4151 23.8396 24.6708 23.1477 24.6708 22.4323V21.6651C24.6708 21.1136 24.2237 20.6666 23.6723 20.6666ZM16 2.67285C19.6819 2.67285 22.6667 5.65762 22.6667 9.33952C22.6667 13.0214 19.6819 16.0062 16 16.0062C12.3181 16.0062 9.33335 13.0214 9.33335 9.33952C9.33335 5.65762 12.3181 2.67285 16 2.67285ZM16 4.67285C13.4227 4.67285 11.3334 6.76219 11.3334 9.33952C11.3334 11.9168 13.4227 14.0062 16 14.0062C18.5773 14.0062 20.6667 11.9168 20.6667 9.33952C20.6667 6.76219 18.5773 4.67285 16 4.67285Z" fill="#C4C4C4"/>
</svg>
